<svg xmlns="http://www.w3.org/2000/svg" viewBox="0 0 74.33 74.33"><defs><style>.cls-1{fill:#4F4F4F;}</style></defs><title>자산 30</title><g id="레이어_2" data-name="레이어 2"><g id="레이어_1-2" data-name="레이어 1"><path class="cls-1" d="M21.09,24.78l.08-.15A1.5,1.5,0,0,1,23.85,26a1.61,1.61,0,0,1-.12.23l-.1.21.17-.05a2.21,2.21,0,0,0,1-.63,16.25,16.25,0,0,1,1-1.48c.28-.37.56-.72.78-1l.37-.46,0,.07a1.6,1.6,0,0,0,.16-.35,3.91,3.91,0,0,0,.12-.76v-.15l-.13.1,0,0-.08.07a1.5,1.5,0,0,1-1.06.43,1.52,1.52,0,0,1-1.07-.43,1.49,1.49,0,0,1,0-2.11l.12-.12.21-.19a.43.43,0,0,1,.1-.09l.11-.11h-.05a2.47,2.47,0,0,0-1.65.68,2.09,2.09,0,0,1-.19.2l-.3.35c-.27.31-.61.74-.94,1.17-.65.89-1.22,1.85-1.23,1.86a2.39,2.39,0,0,0-.17,1.7.14.14,0,0,0,0,.06c.07-.14.13-.27.18-.36A.47.47,0,0,1,21.09,24.78Z"/><path class="cls-1" d="M27.79,56.77l-.2-.14a1.51,1.51,0,0,1-.29-2.11,1.49,1.49,0,0,1,2.09-.29l.11.07.07.05.1.06a1.85,1.85,0,0,0,0-.23,2.05,2.05,0,0,0-.26-.62,2.13,2.13,0,0,0-.24-.36l-.68-.47-.65-.55a5.49,5.49,0,0,1-.69-.66L27,51.35,26.61,51l-.27-.24s0,0-.15-.06a5.6,5.6,0,0,0-.79-.2h-.13l.2.25a1.51,1.51,0,0,1-.22,2.11,1.52,1.52,0,0,1-.95.33,1.5,1.5,0,0,1-1.16-.55s-.17-.2-.41-.51c0,0,0,.07,0,.1a2.37,2.37,0,0,0,.15.92,2,2,0,0,0,.18.42.82.82,0,0,0,.16.25l.54.57.3.3a5.87,5.87,0,0,0,.73.69l.47.39.79.65.57.39a2.36,2.36,0,0,0,.83.36,3.14,3.14,0,0,0,1,0h0l-.4-.22Z"/><path class="cls-1" d="M39.56,59.47h-.43a1.5,1.5,0,0,1-.17-3l.32,0h.23s-.09-.1-.15-.15a2.74,2.74,0,0,0-.62-.37,1.29,1.29,0,0,0-.39-.13l-.55,0-.77,0-.45,0a4.26,4.26,0,0,1-1.06-.11l-.17,0-.53-.09H34.6l-.15,0a2.5,2.5,0,0,0-.71.31l-.16.09.43.11A1.52,1.52,0,0,1,35.08,58a1.5,1.5,0,0,1-1.45,1.12,1.73,1.73,0,0,1-.38,0l-.74-.2a.93.93,0,0,1,.05.1,2.9,2.9,0,0,0,.69.64,2.44,2.44,0,0,0,.43.25c.07,0,.22.06.33.09l.71.11a11,11,0,0,0,1.43.16h.17l1.44.07.66,0a2.49,2.49,0,0,0,.85-.22,3.1,3.1,0,0,0,.75-.57h-.19Z"/><path class="cls-1" d="M50.56,54.77l-.08.07-.1.09a1.48,1.48,0,0,1-1,.42,1.5,1.5,0,0,1-1.07-2.55l.23-.21.17-.16a3.06,3.06,0,0,0-.61,0l-.45.09a.38.38,0,0,0-.16.06l-.55.4c-.08.07-.23.18-.4.3l-.24.18-.68.4c-.23.14-.44.26-.62.35l-.44.2a2.06,2.06,0,0,0-.71.92,1.22,1.22,0,0,0-.07.17l.18-.06.12,0,.08,0a1.5,1.5,0,0,1,1.1,2.79l-.27.1-.47.16.06,0a2.53,2.53,0,0,0,1.74,0l.74-.35c.28-.14.67-.37,1.07-.61l.26-.16a4.05,4.05,0,0,0,.35-.21A2.48,2.48,0,0,0,49,57l.67-.49.35-.25.12-.09a2.79,2.79,0,0,0,.61-.79c0-.09.07-.14.09-.18v0a.56.56,0,0,0,0-.12,3.53,3.53,0,0,0,.11-.6l-.25.24Zm-6.35.6Z"/><path class="cls-1" d="M20.14,47.64l-.06-.14a1.5,1.5,0,0,1,2.74-1.22s.05.11.12.31l0,.1,0,.1.07-.16a2.84,2.84,0,0,0,.16-.8,1.17,1.17,0,0,0,0-.41L23,44.84l-.35-1.18a5.54,5.54,0,0,1-.18-.67c0-.16-.08-.36-.11-.53L22.28,42a2.19,2.19,0,0,0-.77-1l-.13-.09.05.47A1.5,1.5,0,0,1,20.14,43h-.2a1.5,1.5,0,0,1-1.48-1.31l-.08-.63,0,0a2.38,2.38,0,0,0-.41,1.57l.15.75.15.72c0,.15.08.29.12.43l.09.28.42,1.42.26.67a2.26,2.26,0,0,0,.47.7,2.56,2.56,0,0,0,.77.51h0c-.07-.14-.13-.28-.18-.4Z"/><path class="cls-1" d="M43,16.47a1.51,1.51,0,0,1-1.49,1.27l-.23,0-.42-.06.08.1a2,2,0,0,0,.26.29l.08.08.29.26a1.05,1.05,0,0,0,.28.13l.58.14.47.12a4.38,4.38,0,0,1,.73.21l1,.35.55.26a2.1,2.1,0,0,0,.4,0,2.6,2.6,0,0,0,.68-.1l.2-.07-.31-.17a1.53,1.53,0,0,1-.71-2,1.48,1.48,0,0,1,2-.7l.09,0,.45.25.26.16s0-.05,0-.07a3.31,3.31,0,0,0-.51-.84A1.88,1.88,0,0,0,47,15.6l-.63-.3-1.19-.43-.3-.11a4.11,4.11,0,0,0-.56-.17l-.17,0-.72-.18-.68-.17a2.35,2.35,0,0,0-.86.05,4.12,4.12,0,0,0-.47.13,2.17,2.17,0,0,0-.34.22l-.07.05.74.11A1.51,1.51,0,0,1,43,16.47Z"/><path class="cls-1" d="M56.75,0H17.58A17.63,17.63,0,0,0,0,17.58V56.75A17.63,17.63,0,0,0,17.58,74.33H56.75A17.63,17.63,0,0,0,74.33,56.75V17.58A17.63,17.63,0,0,0,56.75,0Zm2.89,46.5-.23.71c0,.13-.09.26-.13.39a11.53,11.53,0,0,1-.45,1.25l-.12.29c-.19.45-.36.89-.52,1.22l-.35.7a4.89,4.89,0,0,1-1.34,1.63,5.68,5.68,0,0,1-1.75,1,5.2,5.2,0,0,1-.83.19,6.27,6.27,0,0,1,0,.76,6.72,6.72,0,0,1-.19,1.09,1.67,1.67,0,0,1-.08.29l-.11.32c-.09.21-.16.34-.23.47a5.64,5.64,0,0,1-1.19,1.53,2.9,2.9,0,0,1-.34.28l-.43.31-.62.46c-.12.09-.28.21-.44.31l-.43.26-.27.16c-.47.28-.92.55-1.29.73l-.75.35a4.66,4.66,0,0,1-2.09.46,6.12,6.12,0,0,1-2-.35,6.49,6.49,0,0,1-.79-.4,5.11,5.11,0,0,1-.52.65,6,6,0,0,1-1.64,1.2,5.7,5.7,0,0,1-2,.5l-.8,0h-.08l-1.47-.07H36a13.39,13.39,0,0,1-1.77-.2l-.76-.12a4,4,0,0,1-1.11-.32,6.66,6.66,0,0,1-.85-.49,4.9,4.9,0,0,1-1.86-2.16,4.73,4.73,0,0,1-.76.21,6.31,6.31,0,0,1-1.09.1,6,6,0,0,1-.94-.07,5.58,5.58,0,0,1-2-.81l-.74-.51-.87-.72-.43-.36a9.56,9.56,0,0,1-1-.95l-.26-.28-.56-.58a3.68,3.68,0,0,1-.66-.93,5.64,5.64,0,0,1-.39-.91,5.16,5.16,0,0,1-.27-2.13,6.17,6.17,0,0,1,.12-.75,5.32,5.32,0,0,1-.73-.26,5.28,5.28,0,0,1-2.81-2.87s-.11-.3-.26-.68l0-.11c-.15-.48-.31-1-.46-1.54l-.07-.22a7.1,7.1,0,0,1-.2-.72l-.15-.7c-.09-.44-.14-.74-.14-.74a5.13,5.13,0,0,1,.82-3.82,5,5,0,0,1,.45-.58c-.16-.14-.31-.3-.46-.46a5.24,5.24,0,0,1-1.28-3.78s.09-1.17.27-2.34c.06-.38.13-.78.2-1.13l.25-1.18a5.35,5.35,0,0,1,2.33-3.2,4.4,4.4,0,0,1,.56-.31,4.1,4.1,0,0,1-.2-.59,5.39,5.39,0,0,1,.48-4c0-.06.67-1.11,1.4-2.11.43-.56.81-1.05,1.13-1.4l.48-.54a5.41,5.41,0,0,1,3.84-1.69,4.91,4.91,0,0,1,.86.06,4.15,4.15,0,0,1,.24-.81,5.44,5.44,0,0,1,2.92-3L30,12.2l.49-.16c.38-.13.81-.27,1.25-.38l.51-.13,2-.4a5.42,5.42,0,0,1,2,.11,5.91,5.91,0,0,1,1.87.89,5.71,5.71,0,0,1,.58.51,4.32,4.32,0,0,1,.57-.47,5.36,5.36,0,0,1,.9-.54l.1,0a8.3,8.3,0,0,1,.94-.27,5.24,5.24,0,0,1,2-.07l.84.2.77.2.14,0a5.6,5.6,0,0,1,.9.28l.24.08,1.3.47.11.05.7.33A5,5,0,0,1,50,14.21,6.23,6.23,0,0,1,51,16a6.2,6.2,0,0,1,.19.83,4.07,4.07,0,0,1,.78,0,5.58,5.58,0,0,1,1,.16l.11,0a5.34,5.34,0,0,1,1,.41,4.71,4.71,0,0,1,1.69,1.38l.44.57a10.39,10.39,0,0,1,.73,1.07l.29.44c.27.45.5.88.69,1.25l.2.38a4,4,0,0,1,.23.51l0,.1.13.3a6.12,6.12,0,0,1,.28.95,4.39,4.39,0,0,1,.09,1.18,5,5,0,0,1-.11,1.06,6.12,6.12,0,0,1-.37,1.1,5.83,5.83,0,0,1-.55.95,4.65,4.65,0,0,1-.83.83,3.8,3.8,0,0,1-2.14.79l-.39,0h-.3A5.62,5.62,0,0,1,52.52,30a6.62,6.62,0,0,1-.79-.27,5.85,5.85,0,0,1-.72-.34,4.33,4.33,0,0,1-.62-.36c-.19-.13-.39-.27-.56-.41a4.38,4.38,0,0,1-.52-.55,2.72,2.72,0,0,1-.45-.72l-.13-.32c-.06-.1-.11-.21-.17-.32a3.42,3.42,0,0,0-.23-.42L48.1,26c-.07-.11-.13-.22-.2-.31l-.37-.47a4.24,4.24,0,0,1-.67-1.45,7.36,7.36,0,0,1-.12-.77,3.14,3.14,0,0,1,0-.48,5.31,5.31,0,0,1-1.19.15h-.11a3.74,3.74,0,0,1-1.64-.35l-.31-.15-.89-.32-.13,0-.18,0-.6-.16-.45-.11a3.61,3.61,0,0,1-1.47-.66,7.19,7.19,0,0,1-.59-.51l-.1-.1a4.9,4.9,0,0,1-.43-.47,5.92,5.92,0,0,1-1.25,1.09,3.65,3.65,0,0,1-1.57.61l-.29.06-.59.12-.3.08-.15,0a5.38,5.38,0,0,0-.62.19l-.31.1-.38.15a4,4,0,0,1-1.4.24,5.89,5.89,0,0,1-1.6-.25,7,7,0,0,1-.24,1.35,4.13,4.13,0,0,1-.79,1.42l-.13.14-.18.21c-.21.23-.43.5-.64.78-.41.56-.78,1.19-.79,1.2a4.87,4.87,0,0,1-2.54,1.93,4.81,4.81,0,0,1,.54,3.2c0,.05-.05.24-.11.5l0,.18c-.05.26-.12.56-.15.87-.14.83-.2,1.62-.2,1.63a5.07,5.07,0,0,1-1.52,3l-.06,0h0a5.09,5.09,0,0,1,1.87,2.72l.13.6c0,.17.06.32.1.49a3.19,3.19,0,0,0,.09.34L26,44.3a3.76,3.76,0,0,1,.23,1.77,6.24,6.24,0,0,1-.3,1.5,6.46,6.46,0,0,1,1.48.41,4.14,4.14,0,0,1,.73.41,5.57,5.57,0,0,1,.53.47l.38.37.24.25a3.39,3.39,0,0,0,.33.33l.75.62.42.29A3.7,3.7,0,0,1,31.92,52a4.94,4.94,0,0,1,.54,1.23,5.55,5.55,0,0,1,1.26-.51,3.51,3.51,0,0,1,.88-.12,3.82,3.82,0,0,1,.75,0l.45.07.21,0a3.86,3.86,0,0,0,.64.08l.55,0,.6,0,.4,0a3.67,3.67,0,0,1,1.7.37,5.07,5.07,0,0,1,1.27.75,4.81,4.81,0,0,1,2-2.17l.13-.07a3.23,3.23,0,0,0,.38-.17l.4-.23.4-.23.16-.1.14-.11.38-.27.33-.24A3.25,3.25,0,0,1,47,49.61l.63-.12a4.53,4.53,0,0,1,.71-.06,5.42,5.42,0,0,1-.14-1.49,4.1,4.1,0,0,1,.4-1.61l.23-.44.15-.37c.07-.18.14-.37.22-.56a3.66,3.66,0,0,0,.23-.61,3.56,3.56,0,0,1,.13-.39l.14-.43a4,4,0,0,1,.82-1.47A7.14,7.14,0,0,1,51.68,41a5.27,5.27,0,0,1,3.72-1l.4.06a4.59,4.59,0,0,1,3.33,2.4,5.41,5.41,0,0,1,.51,4Z"/><path class="cls-1" d="M52.12,22.44a1.54,1.54,0,0,1-1,.4,1.47,1.47,0,0,1-1.1-.48l-.29-.31c0,.06,0,.11,0,.17a4.5,4.5,0,0,0,.08.81,1.13,1.13,0,0,0,.19.41l.19.24a4.88,4.88,0,0,1,.5.71l.16.26a6.13,6.13,0,0,1,.41.72l.13.24.08.16.21.5a.61.61,0,0,1,.14.1l.28.2a2.9,2.9,0,0,0,.33.2c.17.09.32.15.46.21a3.2,3.2,0,0,0,.49.17,2.85,2.85,0,0,0,.89.13l.41,0a.94.94,0,0,0,.52-.19,1.25,1.25,0,0,0,.25-.26,2.32,2.32,0,0,0,.22-.39,3,3,0,0,0,.17-.51,3.94,3.94,0,0,0,0-.44,2.66,2.66,0,0,0,0-.51,2.18,2.18,0,0,0-.14-.45l-.07-.2a1.44,1.44,0,0,1-.09-.2,1.66,1.66,0,0,0-.11-.24l-.2-.38c-.16-.32-.35-.68-.56-1L54.36,22a7.77,7.77,0,0,0-.54-.8l-.5-.64a1.87,1.87,0,0,0-.69-.53,2.92,2.92,0,0,0-.44-.19,3.54,3.54,0,0,0-.47-.07h0l.51.55A1.5,1.5,0,0,1,52.12,22.44Z"/><path class="cls-1" d="M22.16,30.48l-.08-.12c0,.06,0,.12,0,.17l-.1.36A1.51,1.51,0,0,1,20.49,32,1.32,1.32,0,0,1,20.1,32,1.49,1.49,0,0,1,19,30.12l.1-.38c0-.1.07-.23.11-.38l-.06,0a2.35,2.35,0,0,0-1,1.32l-.24,1.09c-.05.31-.12.66-.17,1-.17,1.06-.25,2.12-.25,2.13a2.38,2.38,0,0,0,.56,1.58l.05,0v-.13c0-.08,0-.15,0-.22v-.1c0-.22,0-.33,0-.33a1.5,1.5,0,0,1,3,.33v.16h0v.24l.11-.09a2.16,2.16,0,0,0,.67-1.13s.07-.9.22-1.82c0-.32.11-.7.17-1l0-.18c.07-.36.13-.6.13-.6A2.13,2.13,0,0,0,22.16,30.48Z"/><path class="cls-1" d="M36.15,17.63a1.5,1.5,0,0,1-.57-2.95,2.61,2.61,0,0,1,.46,0l.24,0h.12l-.07-.06a2.83,2.83,0,0,0-.87-.39,2.19,2.19,0,0,0-.82,0L33,14.44l-.5.13c-.41.1-.75.21-1.06.31l-.49.17-.54.21a2.51,2.51,0,0,0-1.29,1.33v0l.24-.11.46-.22A1.5,1.5,0,1,1,31.1,19l-.37.18.18.06a1.94,1.94,0,0,0,1.16.11l.56-.21.25-.08a6.43,6.43,0,0,1,.9-.26l0,0,.46-.12.6-.12.23-.05h.09l.19,0a1,1,0,0,0,.39-.19,2.7,2.7,0,0,0,.62-.56l.07-.09Z"/><path class="cls-1" d="M56.79,44.81a1.93,1.93,0,0,0-.26-.81,1.7,1.7,0,0,0-1.13-.92L54.94,43a2.29,2.29,0,0,0-1.54.45,4,4,0,0,0-.66.57,1.17,1.17,0,0,0-.21.4l-.17.51-.1.3a7.17,7.17,0,0,1-.35,1l-.18.43c-.08.22-.16.42-.24.59s-.25.49-.26.49a3.88,3.88,0,0,0-.07.48,2.61,2.61,0,0,0,.09.68l.06.2a1.28,1.28,0,0,1,.15-.25h0a1.78,1.78,0,0,1,.28-.38,1.5,1.5,0,0,1,2.36,1.8.76.76,0,0,1-.07.13l-.06.1,0,.07-.11.19-.1.11.1,0a2.94,2.94,0,0,0,.85-.48,2.11,2.11,0,0,0,.52-.66s.13-.24.31-.61.28-.66.44-1.05l.14-.34a9.62,9.62,0,0,0,.35-1c0-.16.1-.32.15-.45l.21-.65A2.23,2.23,0,0,0,56.79,44.81Z"/></g></g></svg>
